#!OML:ASF I:\golf\golf\golf 2\Subject 1\2002-09-07\Subject1.ASF
:FULLY-SPECIFIED
:DEGREES
470
root -0.959467 18.0541 -2.92286 3.13718 0.529077 -6.25456
lowerback 0.913009 -0.0968234 2.28051
upperback 0.234707 -0.0859942 6.80209
thorax -0.264137 -0.0440526 5.76528
lowerneck -23.4664 2.17252 2.06512
upperneck 20.1541 5.09236 -10.8567
head 10.7624 1.1289 -3.46288
rclavicle 1.03368e-014 -2.38542e-014
rhumerus -26.6991 -10.0937 -72.574
rradius 20.7644
rwrist -4.95441
rhand -21.074 9.79825
rfingers 7.12502
rthumb 5.30294 -20.1154
lclavicle 1.03368e-014 -2.38542e-014
lhumerus -25.9579 -13.6392 95.4962
lradius 33.5687
lwrist -3.02548
lhand -7.32693 27.1832
lfingers 7.12502
lthumb 18.5564 56.3181
rfemur -12.8185 -0.331335 28.2423
rtibia 25.6902
rfoot -8.60811 -15.3348
rtoes 12.2908
lfemur -18.6491 10.0129 -3.00413
ltibia 51.3306
lfoot -11.4206 -6.55726
ltoes -20.2764
471
root -0.935639 18.0573 -2.94003 3.06083 0.352871 -6.22061
lowerback 0.862273 -0.0579788 2.26783
upperback 0.232431 -0.0375909 6.77086
thorax -0.242018 -0.0198789 5.73862
lowerneck -23.4185 2.31281 2.22263
upperneck 20.6177 5.3364 -11.0525
head 10.9555 1.2149 -3.53472
rclavicle -8.84592e-015 1.59028e-015
rhumerus -26.8502 -10.1102 -72.7524
rradius 20.6832
rwrist -4.90719
rhand -20.9373 9.52202
rfingers 7.12502
rthumb 5.43489 -20.3883
lclavicle -8.84592e-015 1.59028e-015
lhumerus -25.8978 -13.2959 95.2407
lradius 33.7401
lwrist -2.9862
lhand -6.82668 28.0914
lfingers 7.12502
lthumb 19.0375 57.1797
rfemur -12.7504 -0.279787 28.1094
rtibia 25.618
rfoot -8.52496 -15.1975
rtoes 12.5132
lfemur -18.3823 10.1289 -3.03369
ltibia 52.3008
lfoot -10.8343 -7.34204
ltoes -20.8586
472
root -0.911302 18.0652 -2.9551 3.0019 0.179332 -6.06783
lowerback 0.754049 -0.0100808 2.18129
upperback 0.280767 0.0149529 6.67437
thorax -0.135676 0.00554176 5.6847
lowerneck -23.6062 2.43186 2.39777
upperneck 21.1887 5.55887 -11.244
head 11.2343 1.28182 -3.6168
rclavicle 2.28602e-015 -2.06736e-014
rhumerus -26.8573 -10.2277 -72.97
rradius 20.5362
rwrist -4.82341
rhand -20.8978 9.38684
rfingers 7.12502
rthumb 5.47306 -20.5225
lclavicle 2.28602e-015 -2.06736e-014
lhumerus -25.7287 -13.1548 94.9786
lradius 33.9346
lwrist -2.69995
lhand -6.16983 29.1253
lfingers 7.12502
lthumb 19.6691 58.1503
rfemur -12.6959 -0.174214 27.8385
rtibia 25.5419
rfoot -8.46887 -15.136
rtoes 12.6522
lfemur -18.0359 10.1879 -3.21325
ltibia 53.1232
lfoot -10.2287 -8.14662
ltoes -21.3591
473
root -0.886147 18.0703 -2.97159 2.93816 -0.020456 -6.01028
lowerback 0.59448 0.0415796 2.09319
upperback 0.342035 0.0689032 6.66929
thorax 0.0126817 0.0311736 5.72918
lowerneck -23.7328 2.55084 2.46883
upperneck 21.775 5.81044 -11.389
head 11.5094 1.35982 -3.6599
rclavicle -6.55989e-015 1.43125e-014
rhumerus -26.8681 -10.2243 -73.1196
rradius 20.4584
rwrist -4.85446
rhand -20.7459 9.32773
rfingers 7.12502
rthumb 5.61964 -20.5778
lclavicle -6.55989e-015 1.43125e-014
lhumerus -25.6566 -12.9768 94.8507
lradius 34.1028
lwrist -1.90742
lhand -6.06474 29.5514
lfingers 7.12502
lthumb 19.7701 58.5659
rfemur -12.6586 -0.105956 27.673
rtibia 25.4703
rfoot -8.26911 -14.9818
rtoes 12.5495
lfemur -17.6481 10.2837 -3.28718
ltibia 53.7962
lfoot -9.61951 -9.01099
ltoes -22.1977
474
root -0.857647 18.0703 -2.99097 2.88942 -0.190837 -6.22105
lowerback 0.528068 0.0748901 2.2578
upperback 0.316486 0.111613 6.76328
thorax 0.0202384 0.0528503 5.73488
lowerneck -23.8865 2.72904 2.47983
upperneck 22.533 6.16126 -11.425
head 11.8615 1.48371 -3.64013
rclavicle -6.95746e-015 1.90833e-014
rhumerus -27.0211 -10.1155 -73.2506
rradius 20.4542
rwrist -4.91221
rhand -20.5635 9.3098
rfingers 7.12502
rthumb 5.79579 -20.5909
lclavicle -6.95746e-015 1.90833e-014
lhumerus -25.7598 -12.5124 94.7435
lradius 34.2457
lwrist -1.41698
lhand -6.38502 29.5612
lfingers 7.12502
lthumb 19.4622 58.6072
rfemur -12.6552 -0.0168482 27.8024
rtibia 25.4195
rfoot -8.07215 -14.8598
rtoes 12.3393
lfemur -17.3058 10.3147 -3.08273
ltibia 54.3422
lfoot -9.06795 -9.74106
ltoes -23.4791
475
root -0.829008 18.0721 -3.00879 2.88428 -0.290142 -6.31282
lowerback 0.390514 0.0694927 2.34794
upperback 0.245475 0.100565 6.78043
thorax 0.0253889 0.0478554 5.70177
lowerneck -23.7713 2.91914 2.62619
upperneck 23.0954 6.48763 -11.568
head 12.0973 1.60947 -3.68115
rclavicle -1.56046e-014 -1.43125e-014
rhumerus -27.2697 -10.1272 -73.424
rradius 20.4779
rwrist -4.86045
rhand -20.4658 9.30594
rfingers 7.12502
rthumb 5.89011 -20.5922
lclavicle -1.56046e-014 -1.43125e-014
lhumerus -25.9344 -11.9687 94.5174
lradius 34.4708
lwrist -1.3941
lhand -6.39279 29.8674
lfingers 7.12502
lthumb 19.4547 58.9141
rfemur -12.6797 0.195981 27.7926
rtibia 25.3825
rfoot -8.04335 -14.888
rtoes 12.8615
lfemur -16.9632 10.2185 -3.05022
ltibia 54.738
lfoot -8.69644 -10.2396
ltoes -24.9161
476
root -0.802928 18.0764 -3.02512 2.90008 -0.315923 -6.24784
lowerback 0.138775 0.0396976 2.23106
upperback 0.17623 0.0487753 6.7603
thorax 0.0996992 0.0218649 5.74741
lowerneck -23.4133 3.08358 2.94823
upperneck 23.5145 6.77381 -11.9718
head 12.2483 1.71254 -3.85588
rclavicle -1.98785e-016 -9.22361e-014
rhumerus -27.5899 -10.1031 -73.5941
rradius 20.6575
rwrist -4.97452
rhand -20.5217 9.12584
rfingers 7.12502
rthumb 5.83619 -20.7738
lclavicle -1.98785e-016 -9.22361e-014
lhumerus -26.1259 -11.6392 94.3564
lradius 34.6437
lwrist -0.78985
lhand -7.03037 29.8404
lfingers 7.12502
lthumb 18.8416 58.9479
rfemur -12.7314 0.411792 27.5987
rtibia 25.3346
rfoot -8.0511 -14.9057
rtoes 14.0021
lfemur -16.58 10.0154 -3.20994
ltibia 54.9528
lfoot -8.47557 -10.6613
ltoes -25.9823
477
root -0.774889 18.0797 -3.04358 2.91972 -0.335917 -6.18104
lowerback -0.0576389 0.024135 2.11044
upperback 0.0903354 0.0214172 6.74833
thorax 0.123799 0.00858468 5.80367
lowerneck -23.1412 3.24788 3.26197
upperneck 24.058 7.08457 -12.3741
head 12.4715 1.81951 -4.03178
rclavicle 4.47266e-016 1.74931e-014
rhumerus -27.9337 -10.1178 -73.7103
rradius 20.8419
rwrist -5.05616
rhand -20.7225 9.06079
rfingers 7.12502
rthumb 5.64227 -20.8441
lclavicle 4.47266e-016 1.74931e-014
lhumerus -26.3352 -11.3721 94.2522
lradius 34.8969
lwrist 0.172429
lhand -7.73862 29.7755
lfingers 7.12502
lthumb 18.1603 58.9477
rfemur -12.814 0.607826 27.4041
rtibia 25.2772
rfoot -7.85227 -14.962
rtoes 13.9778
lfemur -16.163 9.77467 -3.40105
ltibia 54.9852
lfoot -8.34864 -11.0858
ltoes -26.7072
478
root -0.743078 18.0827 -3.06307 2.88729 -0.385867 -6.13404
lowerback -0.18957 0.00600284 2.07317
upperback 0.0271751 -0.00679057 6.72984
thorax 0.135254 -0.0051721 5.80527
lowerneck -22.8572 3.41555 3.46047
upperneck 24.5722 7.40171 -12.6338
head 12.6739 1.93859 -4.1317
rclavicle -7.55382e-015 -6.52014e-014
rhumerus -28.2127 -10.1247 -73.8397
rradius 20.9568
rwrist -5.20851
rhand -20.782 9.15371
rfingers 7.12502
rthumb 5.58486 -20.7527
lclavicle -7.55382e-015 -6.52014e-014
lhumerus -26.5353 -11.0496 94.0977
lradius 35.2249
lwrist 1.0434
lhand -7.88592 30.1065
lfingers 7.12502
lthumb 18.0186 59.2918
rfemur -12.8229 0.679991 27.2392
rtibia 25.2016
rfoot -7.59726 -14.9663
rtoes 13.2285
lfemur -15.6411 9.49571 -3.6084
ltibia 54.8418
lfoot -8.26015 -11.4281
ltoes -27.2185
479
root -0.708331 18.0862 -3.08294 2.84412 -0.387038 -6.17725
lowerback -0.353708 -0.0384864 2.112
upperback -0.0092558 -0.0745313 6.76808
thorax 0.195822 -0.0393225 5.8235
lowerneck -22.6531 3.62241 3.52126
upperneck 25.1907 7.79931 -12.7433
head 12.9333 2.09266 -4.1392
rclavicle 1.2921e-015 5.40694e-014
rhumerus -28.4477 -9.9719 -73.9819
rradius 21.161
rwrist -5.58151
rhand -20.7157 9.14928
rfingers 7.12502
rthumb 5.64882 -20.7554
lclavicle 1.2921e-015 5.40694e-014
lhumerus -26.6374 -10.6772 93.9748
lradius 35.2665
lwrist 1.56741
lhand -8.21207 29.8921
lfingers 7.12502
lthumb 17.7048 59.1061
rfemur -12.8055 0.629738 27.1646
rtibia 25.1204
rfoot -7.45988 -14.8896
rtoes 13.1512
lfemur -15.108 9.1576 -3.75551
ltibia 54.5556
lfoot -8.2129 -11.6361
ltoes -27.3824
480
root -0.671413 18.0911 -3.10354 2.85089 -0.36612 -6.17328
lowerback -0.510749 -0.0855794 2.10247
upperback -0.0948587 -0.141616 6.78957
thorax 0.201674 -0.0723913 5.85131
lowerneck -22.5505 3.86443 3.50629
upperneck 26.011 8.25611 -12.6867
head 13.294 2.27521 -4.06483
rclavicle 9.19379e-015 -9.85972e-014
rhumerus -28.7388 -9.85794 -74.1259
rradius 21.3922
rwrist -5.84218
rhand -20.8451 9.19125
rfingers 7.12502
rthumb 5.52388 -20.7168
lclavicle 9.19379e-015 -9.85972e-014
lhumerus -26.7319 -10.316 93.8741
lradius 35.1516
lwrist 1.79316
lhand -8.51993 29.5084
lfingers 7.12502
lthumb 17.4085 58.7489
rfemur -12.8629 0.628431 27.0196
rtibia 25.0775
rfoot -7.32549 -14.8573
rtoes 12.9321
lfemur -14.6029 8.80406 -4.00477
ltibia 54.1278
lfoot -8.15819 -11.6989
ltoes -27.4128
481
root -0.637216 18.0944 -3.12463 2.84047 -0.289982 -6.15637
lowerback -0.629225 -0.146009 2.06794
upperback -0.188356 -0.223241 6.78883
thorax 0.179025 -0.112486 5.86952
lowerneck -22.425 4.00772 3.53807
upperneck 26.7783 8.58017 -12.7335
head 13.6292 2.39214 -4.06309
rclavicle 7.70291e-015 0
rhumerus -29.0413 -9.77436 -74.3028
rradius 21.6227
rwrist -6.06397
rhand -21.1124 9.32216
rfingers 7.12502
rthumb 5.26581 -20.5924
lclavicle 7.70291e-015 0
lhumerus -26.8566 -9.93843 93.7465
lradius 35.0565
lwrist 1.93852
lhand -8.67016 29.4977
lfingers 7.12502
lthumb 17.2639 58.7508
rfemur -12.9204 0.70473 26.8712
rtibia 25.0782
rfoot -7.21407 -14.9479
rtoes 12.6322
lfemur -14.0359 8.39942 -4.25521
ltibia 53.5469
lfoot -8.03357 -11.6343
ltoes -27.2938
